<svg width="217" height="59" viewBox="0 0 217 59" fill="none" xmlns="http://www.w3.org/2000/svg">
<g filter="url(#filter0_d)">
<circle cx="29.3706" cy="27.8672" r="25" fill="white"/>
</g>
<path d="M43.3706 42.7935V46.1776C43.3706 46.5586 43.0451 46.8672 42.6433 46.8672H16.0979C15.6961 46.8672 15.3706 46.5586 15.3706 46.1776V42.7935C15.3706 39.2431 18.4061 36.3667 22.1515 36.3659C23.4751 36.365 24.6406 35.7194 25.3115 34.7402C25.9855 33.7581 25.916 32.904 25.916 32.2138L25.9297 32.1819C22.6661 30.901 20.3706 27.8522 20.3706 24.2949V24.0251C19.0747 24.0251 18.0979 23.0541 18.0979 21.9099V18.3275C18.0688 17.0803 18.1288 12.6817 21.4797 9.6191C25.376 6.05833 31.5506 6.34967 36.0233 8.25461C36.1688 8.31667 36.1642 8.51406 36.0169 8.57182L34.8506 9.02693C34.676 9.09503 34.7133 9.33896 34.9006 9.35793L35.4669 9.41568C38.1788 9.69065 40.6979 11.087 42.2597 13.4109C42.3015 13.4738 42.2897 13.5695 42.236 13.6238C41.2724 14.5901 40.7342 15.8727 40.7342 17.2061V21.9099C40.7342 23.0778 39.7351 24.0251 38.5033 24.0251H38.3706V24.2949C38.3706 27.8522 36.0751 30.901 32.8115 32.1819L32.8251 32.2138C32.8251 32.8841 32.75 33.7498 33.4297 34.7402C34.1006 35.7194 35.266 36.365 36.5897 36.3659C40.3351 36.3667 43.3706 39.2431 43.3706 42.7935Z" fill="#BE8F55"/>
<path d="M43.3706 42.7936V46.1776C43.3706 46.5585 43.0449 46.8672 42.6433 46.8672H16.0979C15.6962 46.8672 15.3706 46.5585 15.3706 46.1776V42.7936C15.3706 39.2431 18.4065 36.3672 22.1511 36.3659C23.4751 36.3655 24.6408 35.7191 25.3115 34.7402C27.6528 36.6367 31.087 36.6378 33.4297 34.7402C34.1003 35.7191 35.2661 36.3655 36.5901 36.3659C40.3347 36.3672 43.3706 39.2431 43.3706 42.7936Z" fill="#323751"/>
<path d="M42.2594 13.4113C42.3016 13.4741 42.2897 13.5693 42.2358 13.6234C41.2725 14.5903 40.7343 15.8725 40.7343 17.2061V21.9098C40.7343 22.9776 39.8858 24.0251 38.3707 24.0251V18.7007C38.3707 16.4156 36.417 14.5633 34.007 14.5633H24.7343C22.3243 14.5633 20.3707 16.4156 20.3707 18.7007V24.0251C19.0748 24.0251 18.0979 23.0541 18.0979 21.9098V18.3275C18.0689 17.0802 18.1289 12.6816 21.4798 9.61905C25.3758 6.05819 31.551 6.34971 36.023 8.25482C36.1685 8.3168 36.1647 8.51427 36.0171 8.57185L34.8507 9.02714C34.6763 9.09524 34.713 9.33891 34.9005 9.35796L35.467 9.41563C38.1793 9.69034 40.6977 11.0867 42.2594 13.4113Z" fill="#42434D"/>
<path d="M38.3706 24.2941C38.3706 29.0087 34.339 32.8275 29.3706 32.8275C24.6895 32.8275 20.3706 29.377 20.3706 24.0243V18.6999C20.3706 16.4149 22.3242 14.5625 24.7342 14.5625H34.007C36.417 14.5625 38.3706 16.4149 38.3706 18.6999V24.2941Z" fill="#B7884E"/>
<path d="M36.7343 45.4026H34.5525C34.1508 45.4026 33.8252 45.0938 33.8252 44.713C33.8252 44.3322 34.1508 44.0234 34.5525 44.0234H36.7343C37.1359 44.0234 37.4616 44.3322 37.4616 44.713C37.4616 45.0938 37.136 45.4026 36.7343 45.4026Z" fill="white"/>
<path d="M27.3328 29.8048C28.8125 30.6826 27.6457 32.8351 26.0259 32.2187C22.6955 30.9512 20.3706 27.874 20.3706 24.2945V18.7003C20.3706 17.8311 20.6533 17.0245 21.1362 16.3585C21.7284 15.542 23.0979 15.9027 23.0979 16.9764V22.5705C23.0979 25.7176 24.8426 28.3276 27.3328 29.8048Z" fill="#BE8F55"/>
<path d="M32.928 33.6289C30.6883 34.5178 28.2269 34.5868 25.8135 33.6289C25.9367 33.1439 25.9162 32.8298 25.9162 32.2135L25.9298 32.1816C28.1191 33.0433 30.6181 33.045 32.8117 32.1816L32.8253 32.2135C32.8253 32.8301 32.8048 33.1441 32.928 33.6289Z" fill="#B7884E"/>
<path d="M25.8144 38.4481C25.4782 38.5484 25.1177 38.6036 24.7311 38.6068C20.977 38.6382 17.9161 41.4528 17.9161 45.0125V45.6605C17.9161 46.3269 17.3462 46.8672 16.6433 46.8672H16.0979C15.6962 46.8672 15.3706 46.5585 15.3706 46.1776V42.7936C15.3706 39.243 18.4065 36.3672 22.1511 36.3659C23.475 36.3655 24.6408 35.7191 25.3115 34.7402C25.5819 34.9592 25.8713 35.156 26.1762 35.3283C27.5174 36.086 27.3037 38.0041 25.8144 38.4481Z" fill="#5F82A6"/>
<path d="M32.9266 38.4481C33.2628 38.5484 33.6233 38.6036 34.0098 38.6068C37.764 38.6382 40.8249 41.4528 40.8249 45.0125V45.6605C40.8249 46.3269 41.3948 46.8672 42.0977 46.8672H42.6431C43.0448 46.8672 43.3704 46.5585 43.3704 46.1776V42.7936C43.3704 39.243 40.3345 36.3672 36.5899 36.3659C35.2659 36.3655 34.1002 35.7191 33.4295 34.7402C33.1591 34.9592 32.8697 35.156 32.5647 35.3283C31.2237 36.086 31.4373 38.0041 32.9266 38.4481Z" fill="#232842"/>
<path d="M36.017 8.57182C34.9481 8.98892 34.7957 9.08089 34.4254 9.02642C28.455 8.14894 23.2168 10.4912 21.4379 15.9899V15.9907C20.7725 16.7165 20.3707 17.6647 20.3707 18.7008V21.9351C20.3707 23.3305 18.0979 23.4276 18.0979 21.9098V18.3275C18.0689 17.0803 18.1289 12.6817 21.4798 9.6191C25.3761 6.05833 31.5506 6.34967 36.0234 8.25461C36.1688 8.31667 36.1643 8.51406 36.017 8.57182Z" fill="#4D4E59"/>
<path d="M79.6362 30.6914C79.5308 31.5938 79.1968 32.291 78.6343 32.7832C78.0757 33.2715 77.3315 33.5156 76.4019 33.5156C75.394 33.5156 74.5854 33.1543 73.9761 32.4316C73.3706 31.709 73.0679 30.7422 73.0679 29.5312V28.7109C73.0679 27.918 73.2085 27.2207 73.4897 26.6191C73.7749 26.0176 74.1772 25.5566 74.6968 25.2363C75.2163 24.9121 75.8179 24.75 76.5015 24.75C77.4077 24.75 78.1343 25.0039 78.6812 25.5117C79.228 26.0156 79.5464 26.7148 79.6362 27.6094H78.5054C78.4077 26.9297 78.1948 26.4375 77.8667 26.1328C77.5425 25.8281 77.0874 25.6758 76.5015 25.6758C75.7827 25.6758 75.2183 25.9414 74.8081 26.4727C74.4019 27.0039 74.1987 27.7598 74.1987 28.7402V29.5664C74.1987 30.4922 74.3921 31.2285 74.7788 31.7754C75.1655 32.3223 75.7065 32.5957 76.4019 32.5957C77.0269 32.5957 77.5054 32.4551 77.8374 32.1738C78.1733 31.8887 78.396 31.3945 78.5054 30.6914H79.6362ZM80.7202 30.1699C80.7202 29.5488 80.8413 28.9902 81.0835 28.4941C81.3296 27.998 81.6694 27.6152 82.103 27.3457C82.5405 27.0762 83.0386 26.9414 83.5972 26.9414C84.4604 26.9414 85.1577 27.2402 85.689 27.8379C86.2241 28.4355 86.4917 29.2305 86.4917 30.2227V30.2988C86.4917 30.916 86.3726 31.4707 86.1343 31.9629C85.8999 32.4512 85.562 32.832 85.1206 33.1055C84.6831 33.3789 84.1792 33.5156 83.6089 33.5156C82.7495 33.5156 82.0522 33.2168 81.5171 32.6191C80.9858 32.0215 80.7202 31.2305 80.7202 30.2461V30.1699ZM81.8101 30.2988C81.8101 31.002 81.9722 31.5664 82.2964 31.9922C82.6245 32.418 83.062 32.6309 83.6089 32.6309C84.1597 32.6309 84.5972 32.416 84.9214 31.9863C85.2456 31.5527 85.4077 30.9473 85.4077 30.1699C85.4077 29.4746 85.2417 28.9121 84.9097 28.4824C84.5815 28.0488 84.144 27.832 83.5972 27.832C83.062 27.832 82.6304 28.0449 82.3022 28.4707C81.9741 28.8965 81.8101 29.5059 81.8101 30.2988ZM88.8765 27.0586L88.9116 27.8555C89.396 27.2461 90.0288 26.9414 90.8101 26.9414C92.1499 26.9414 92.8257 27.6973 92.8374 29.209V33.3984H91.7534V29.2031C91.7495 28.7461 91.644 28.4082 91.437 28.1895C91.2339 27.9707 90.9155 27.8613 90.4819 27.8613C90.1304 27.8613 89.8218 27.9551 89.5562 28.1426C89.2905 28.3301 89.0835 28.5762 88.9351 28.8809V33.3984H87.8511V27.0586H88.8765ZM95.9429 25.5234V27.0586H97.1265V27.8965H95.9429V31.8281C95.9429 32.082 95.9956 32.2734 96.1011 32.4023C96.2065 32.5273 96.3862 32.5898 96.6401 32.5898C96.7651 32.5898 96.937 32.5664 97.1558 32.5195V33.3984C96.8706 33.4766 96.5933 33.5156 96.3237 33.5156C95.8394 33.5156 95.4741 33.3691 95.228 33.0762C94.9819 32.7832 94.8589 32.3672 94.8589 31.8281V27.8965H93.7046V27.0586H94.8589V25.5234H95.9429ZM102.312 33.3984C102.25 33.2734 102.199 33.0508 102.16 32.7305C101.656 33.2539 101.054 33.5156 100.355 33.5156C99.73 33.5156 99.2163 33.3398 98.814 32.9883C98.4155 32.6328 98.2163 32.1836 98.2163 31.6406C98.2163 30.9805 98.4663 30.4688 98.9663 30.1055C99.4702 29.7383 100.177 29.5547 101.087 29.5547H102.142V29.0566C102.142 28.6777 102.029 28.377 101.802 28.1543C101.576 27.9277 101.242 27.8145 100.8 27.8145C100.414 27.8145 100.089 27.9121 99.8276 28.1074C99.5659 28.3027 99.4351 28.5391 99.4351 28.8164H98.3452C98.3452 28.5 98.4565 28.1953 98.6792 27.9023C98.9058 27.6055 99.2104 27.3711 99.5933 27.1992C99.98 27.0273 100.404 26.9414 100.865 26.9414C101.595 26.9414 102.167 27.125 102.582 27.4922C102.996 27.8555 103.21 28.3574 103.226 28.998V31.916C103.226 32.498 103.3 32.9609 103.449 33.3047V33.3984H102.312ZM100.513 32.5723C100.853 32.5723 101.175 32.4844 101.48 32.3086C101.785 32.1328 102.005 31.9043 102.142 31.623V30.3223H101.292C99.9644 30.3223 99.3003 30.7109 99.3003 31.4883C99.3003 31.8281 99.4136 32.0938 99.6401 32.2852C99.8667 32.4766 100.158 32.5723 100.513 32.5723ZM111.353 33.3984H110.263V26.1738L108.078 26.9766V25.9922L111.183 24.8262H111.353V33.3984ZM120.119 33.3984H114.529V32.6191L117.482 29.3379C117.919 28.8418 118.22 28.4395 118.384 28.1309C118.552 27.8184 118.636 27.4961 118.636 27.1641C118.636 26.7188 118.501 26.3535 118.232 26.0684C117.962 25.7832 117.603 25.6406 117.154 25.6406C116.615 25.6406 116.195 25.7949 115.894 26.1035C115.597 26.4082 115.449 26.834 115.449 27.3809H114.365C114.365 26.5957 114.617 25.9609 115.121 25.4766C115.628 24.9922 116.306 24.75 117.154 24.75C117.947 24.75 118.574 24.959 119.035 25.377C119.496 25.791 119.726 26.3438 119.726 27.0352C119.726 27.875 119.191 28.875 118.121 30.0352L115.835 32.5137H120.119V33.3984ZM122.843 28.6055H123.658C124.169 28.5977 124.572 28.4629 124.865 28.2012C125.158 27.9395 125.304 27.5859 125.304 27.1406C125.304 26.1406 124.806 25.6406 123.81 25.6406C123.341 25.6406 122.966 25.7754 122.685 26.0449C122.408 26.3105 122.269 26.6641 122.269 27.1055H121.185C121.185 26.4297 121.431 25.8691 121.923 25.4238C122.419 24.9746 123.048 24.75 123.81 24.75C124.615 24.75 125.246 24.9629 125.703 25.3887C126.16 25.8145 126.388 26.4062 126.388 27.1641C126.388 27.5352 126.267 27.8945 126.025 28.2422C125.787 28.5898 125.46 28.8496 125.046 29.0215C125.515 29.1699 125.876 29.416 126.13 29.7598C126.388 30.1035 126.517 30.5234 126.517 31.0195C126.517 31.7852 126.267 32.3926 125.767 32.8418C125.267 33.291 124.617 33.5156 123.816 33.5156C123.015 33.5156 122.363 33.2988 121.859 32.8652C121.359 32.4316 121.109 31.8594 121.109 31.1484H122.199C122.199 31.5977 122.345 31.957 122.638 32.2266C122.931 32.4961 123.324 32.6309 123.816 32.6309C124.339 32.6309 124.74 32.4941 125.017 32.2207C125.294 31.9473 125.433 31.5547 125.433 31.043C125.433 30.5469 125.281 30.166 124.976 29.9004C124.671 29.6348 124.232 29.498 123.658 29.4902H122.843V28.6055ZM132.582 30.5332H133.765V31.418H132.582V33.3984H131.492V31.418H127.607V30.7793L131.427 24.8672H132.582V30.5332ZM128.837 30.5332H131.492V26.3496L131.363 26.584L128.837 30.5332ZM139.32 30.5332H140.503V31.418H139.32V33.3984H138.23V31.418H134.345V30.7793L138.166 24.8672H139.32V30.5332ZM135.576 30.5332H138.23V26.3496L138.101 26.584L135.576 30.5332ZM143.849 30.2168H140.99V29.332H143.849V30.2168ZM150.148 29.7598C150.148 31.0293 149.931 31.9727 149.498 32.5898C149.064 33.207 148.386 33.5156 147.464 33.5156C146.554 33.5156 145.88 33.2148 145.443 32.6133C145.005 32.0078 144.779 31.1055 144.763 29.9062V28.459C144.763 27.2051 144.98 26.2734 145.414 25.6641C145.847 25.0547 146.527 24.75 147.453 24.75C148.371 24.75 149.046 25.0449 149.48 25.6348C149.914 26.2207 150.136 27.127 150.148 28.3535V29.7598ZM149.064 28.2773C149.064 27.3594 148.935 26.6914 148.677 26.2734C148.419 25.8516 148.011 25.6406 147.453 25.6406C146.898 25.6406 146.494 25.8496 146.24 26.2676C145.986 26.6855 145.855 27.3281 145.847 28.1953V29.9297C145.847 30.8516 145.98 31.5332 146.246 31.9746C146.515 32.4121 146.921 32.6309 147.464 32.6309C148 32.6309 148.396 32.4238 148.654 32.0098C148.916 31.5957 149.052 30.9434 149.064 30.0527V28.2773ZM73.3608 47.3984V38.8672H76.1499C77.0757 38.8672 77.771 39.0586 78.2358 39.4414C78.7046 39.8242 78.939 40.3906 78.939 41.1406C78.939 41.5391 78.8257 41.8926 78.5991 42.2012C78.3726 42.5059 78.064 42.7422 77.6733 42.9102C78.1343 43.0391 78.4976 43.2852 78.7632 43.6484C79.0327 44.0078 79.1675 44.4375 79.1675 44.9375C79.1675 45.7031 78.9194 46.3047 78.4233 46.7422C77.9272 47.1797 77.2261 47.3984 76.3198 47.3984H73.3608ZM74.4858 43.4082V46.4785H76.3433C76.8667 46.4785 77.2788 46.3438 77.5796 46.0742C77.8843 45.8008 78.0366 45.4258 78.0366 44.9492C78.0366 43.9219 77.478 43.4082 76.3608 43.4082H74.4858ZM74.4858 42.5059H76.1851C76.6772 42.5059 77.0698 42.3828 77.3628 42.1367C77.6597 41.8906 77.8081 41.5566 77.8081 41.1348C77.8081 40.666 77.6714 40.3262 77.3979 40.1152C77.1245 39.9004 76.7085 39.793 76.1499 39.793H74.4858V42.5059ZM84.5815 47.3984C84.519 47.2734 84.4683 47.0508 84.4292 46.7305C83.9253 47.2539 83.3237 47.5156 82.6245 47.5156C81.9995 47.5156 81.4858 47.3398 81.0835 46.9883C80.6851 46.6328 80.4858 46.1836 80.4858 45.6406C80.4858 44.9805 80.7358 44.4688 81.2358 44.1055C81.7397 43.7383 82.4468 43.5547 83.3569 43.5547H84.4116V43.0566C84.4116 42.6777 84.2983 42.377 84.0718 42.1543C83.8452 41.9277 83.5112 41.8145 83.0698 41.8145C82.6831 41.8145 82.3589 41.9121 82.0972 42.1074C81.8354 42.3027 81.7046 42.5391 81.7046 42.8164H80.6147C80.6147 42.5 80.7261 42.1953 80.9487 41.9023C81.1753 41.6055 81.48 41.3711 81.8628 41.1992C82.2495 41.0273 82.6733 40.9414 83.1343 40.9414C83.8647 40.9414 84.437 41.125 84.8511 41.4922C85.2651 41.8555 85.48 42.3574 85.4956 42.998V45.916C85.4956 46.498 85.5698 46.9609 85.7183 47.3047V47.3984H84.5815ZM82.7827 46.5723C83.1226 46.5723 83.4448 46.4844 83.7495 46.3086C84.0542 46.1328 84.2749 45.9043 84.4116 45.623V44.3223H83.562C82.2339 44.3223 81.5698 44.7109 81.5698 45.4883C81.5698 45.8281 81.6831 46.0938 81.9097 46.2852C82.1362 46.4766 82.4272 46.5723 82.7827 46.5723ZM88.2202 41.0586L88.2554 41.8555C88.7397 41.2461 89.3726 40.9414 90.1538 40.9414C91.4937 40.9414 92.1694 41.6973 92.1812 43.209V47.3984H91.0972V43.2031C91.0933 42.7461 90.9878 42.4082 90.7808 42.1895C90.5776 41.9707 90.2593 41.8613 89.8257 41.8613C89.4741 41.8613 89.1655 41.9551 88.8999 42.1426C88.6343 42.3301 88.4272 42.5762 88.2788 42.8809V47.3984H87.1948V41.0586H88.2202ZM96.3589 46.6309C96.7456 46.6309 97.0835 46.5137 97.3726 46.2793C97.6616 46.0449 97.8218 45.752 97.853 45.4004H98.8784C98.8589 45.7637 98.7339 46.1094 98.5034 46.4375C98.2729 46.7656 97.9644 47.0273 97.5776 47.2227C97.1948 47.418 96.7886 47.5156 96.3589 47.5156C95.4956 47.5156 94.8081 47.2285 94.2964 46.6543C93.7886 46.0762 93.5347 45.2871 93.5347 44.2871V44.1055C93.5347 43.4883 93.6479 42.9395 93.8745 42.459C94.1011 41.9785 94.4253 41.6055 94.8472 41.3398C95.2729 41.0742 95.7749 40.9414 96.353 40.9414C97.064 40.9414 97.6538 41.1543 98.1226 41.5801C98.5952 42.0059 98.8472 42.5586 98.8784 43.2383H97.853C97.8218 42.8281 97.6655 42.4922 97.3843 42.2305C97.1069 41.9648 96.7632 41.832 96.353 41.832C95.8022 41.832 95.3745 42.0312 95.0698 42.4297C94.769 42.8242 94.6187 43.3965 94.6187 44.1465V44.3516C94.6187 45.082 94.769 45.6445 95.0698 46.0391C95.3706 46.4336 95.8003 46.6309 96.3589 46.6309ZM104.011 47.3984C103.949 47.2734 103.898 47.0508 103.859 46.7305C103.355 47.2539 102.753 47.5156 102.054 47.5156C101.429 47.5156 100.916 47.3398 100.513 46.9883C100.115 46.6328 99.9155 46.1836 99.9155 45.6406C99.9155 44.9805 100.166 44.4688 100.666 44.1055C101.169 43.7383 101.876 43.5547 102.787 43.5547H103.841V43.0566C103.841 42.6777 103.728 42.377 103.501 42.1543C103.275 41.9277 102.941 41.8145 102.5 41.8145C102.113 41.8145 101.789 41.9121 101.527 42.1074C101.265 42.3027 101.134 42.5391 101.134 42.8164H100.044C100.044 42.5 100.156 42.1953 100.378 41.9023C100.605 41.6055 100.91 41.3711 101.292 41.1992C101.679 41.0273 102.103 40.9414 102.564 40.9414C103.294 40.9414 103.867 41.125 104.281 41.4922C104.695 41.8555 104.91 42.3574 104.925 42.998V45.916C104.925 46.498 105 46.9609 105.148 47.3047V47.3984H104.011ZM102.212 46.5723C102.552 46.5723 102.875 46.4844 103.179 46.3086C103.484 46.1328 103.705 45.9043 103.841 45.623V44.3223H102.992C101.664 44.3223 101 44.7109 101 45.4883C101 45.8281 101.113 46.0938 101.339 46.2852C101.566 46.4766 101.857 46.5723 102.212 46.5723ZM104.761 38.5859C104.761 39.0078 104.64 39.3496 104.398 39.6113C104.16 39.873 103.861 40.0039 103.501 40.0039C103.341 40.0039 103.203 39.9844 103.085 39.9453C102.968 39.9062 102.814 39.8262 102.623 39.7051C102.435 39.584 102.298 39.5117 102.212 39.4883C102.13 39.4609 102.035 39.4473 101.925 39.4473C101.765 39.4473 101.628 39.5098 101.515 39.6348C101.402 39.7559 101.345 39.9121 101.345 40.1035L100.619 40.0625C100.619 39.6445 100.736 39.2988 100.97 39.0254C101.208 38.752 101.509 38.6152 101.873 38.6152C102.009 38.6152 102.132 38.6348 102.242 38.6738C102.351 38.7129 102.5 38.7891 102.687 38.9023C102.875 39.0156 103.017 39.0898 103.115 39.125C103.216 39.1602 103.328 39.1777 103.449 39.1777C103.617 39.1777 103.755 39.1113 103.865 38.9785C103.978 38.8457 104.035 38.6914 104.035 38.5156L104.761 38.5859ZM106.337 44.1699C106.337 43.5488 106.458 42.9902 106.701 42.4941C106.947 41.998 107.287 41.6152 107.72 41.3457C108.158 41.0762 108.656 40.9414 109.214 40.9414C110.078 40.9414 110.775 41.2402 111.306 41.8379C111.841 42.4355 112.109 43.2305 112.109 44.2227V44.2988C112.109 44.916 111.99 45.4707 111.751 45.9629C111.517 46.4512 111.179 46.832 110.738 47.1055C110.3 47.3789 109.796 47.5156 109.226 47.5156C108.367 47.5156 107.669 47.2168 107.134 46.6191C106.603 46.0215 106.337 45.2305 106.337 44.2461V44.1699ZM107.427 44.2988C107.427 45.002 107.589 45.5664 107.914 45.9922C108.242 46.418 108.679 46.6309 109.226 46.6309C109.777 46.6309 110.214 46.416 110.539 45.9863C110.863 45.5527 111.025 44.9473 111.025 44.1699C111.025 43.4746 110.859 42.9121 110.527 42.4824C110.199 42.0488 109.761 41.832 109.214 41.832C108.679 41.832 108.248 42.0449 107.919 42.4707C107.591 42.8965 107.427 43.5059 107.427 44.2988Z" fill="#555555"/>
<path d="M74.9785 13.4331V16.8672H73.3726V7.625H76.9082C77.9408 7.625 78.7596 7.89372 79.3647 8.43115C79.9741 8.96859 80.2788 9.67952 80.2788 10.564C80.2788 11.4696 79.9805 12.1742 79.3838 12.6777C78.7913 13.1813 77.9598 13.4331 76.8892 13.4331H74.9785ZM74.9785 12.1445H76.9082C77.4795 12.1445 77.9154 12.0112 78.2158 11.7446C78.5163 11.4738 78.6665 11.0845 78.6665 10.5767C78.6665 10.0773 78.5142 9.67952 78.2095 9.3833C77.9048 9.08285 77.4858 8.92839 76.9526 8.91992H74.9785V12.1445ZM84.4746 16.9941C83.4971 16.9941 82.7036 16.6873 82.0942 16.0737C81.4891 15.4559 81.1865 14.6349 81.1865 13.6108V13.4204C81.1865 12.7349 81.3177 12.1234 81.5801 11.5859C81.8467 11.0443 82.2191 10.6232 82.6973 10.3228C83.1755 10.0223 83.7087 9.87207 84.2969 9.87207C85.2321 9.87207 85.9536 10.1704 86.4614 10.7671C86.9735 11.3638 87.2295 12.208 87.2295 13.2998V13.9219H82.7417C82.7882 14.4889 82.9766 14.9375 83.3066 15.2676C83.641 15.5977 84.0599 15.7627 84.5635 15.7627C85.2702 15.7627 85.8457 15.4771 86.29 14.9058L87.1216 15.6992C86.8465 16.1097 86.4784 16.4292 86.0171 16.6577C85.5601 16.882 85.0459 16.9941 84.4746 16.9941ZM84.2905 11.1099C83.8674 11.1099 83.5246 11.258 83.2622 11.5542C83.0041 11.8504 82.839 12.263 82.7671 12.792H85.7061V12.6777C85.6722 12.1615 85.5347 11.7721 85.2935 11.5098C85.0522 11.2432 84.7179 11.1099 84.2905 11.1099ZM88.1436 13.3823C88.1436 12.3244 88.389 11.4759 88.8799 10.8369C89.3708 10.1937 90.0288 9.87207 90.854 9.87207C91.5819 9.87207 92.1701 10.126 92.6187 10.6338V7.11719H94.1611V16.8672H92.7646L92.6885 16.1562C92.2272 16.7148 91.6115 16.9941 90.8413 16.9941C90.0373 16.9941 89.3856 16.6704 88.8862 16.0229C88.3911 15.3755 88.1436 14.4953 88.1436 13.3823ZM89.686 13.5156C89.686 14.2139 89.8193 14.7598 90.0859 15.1533C90.3568 15.5426 90.7397 15.7373 91.2349 15.7373C91.8654 15.7373 92.3267 15.4559 92.6187 14.8931V11.9604C92.3351 11.4103 91.8781 11.1353 91.2476 11.1353C90.7482 11.1353 90.3631 11.3341 90.0923 11.7319C89.8215 12.1255 89.686 12.7201 89.686 13.5156ZM99.3662 11.4082C99.1631 11.3743 98.9536 11.3574 98.7378 11.3574C98.0311 11.3574 97.555 11.6283 97.3096 12.1699V16.8672H95.7671V9.99902H97.2397L97.2778 10.7671C97.6502 10.1704 98.1665 9.87207 98.8267 9.87207C99.0467 9.87207 99.2287 9.90169 99.3726 9.96094L99.3662 11.4082ZM99.8232 13.3696C99.8232 12.6968 99.9565 12.0916 100.223 11.5542C100.49 11.0125 100.864 10.5978 101.347 10.3101C101.829 10.0181 102.383 9.87207 103.01 9.87207C103.937 9.87207 104.688 10.1704 105.263 10.7671C105.843 11.3638 106.156 12.1551 106.203 13.1411L106.209 13.5029C106.209 14.18 106.078 14.7852 105.815 15.3184C105.557 15.8516 105.185 16.2642 104.698 16.5562C104.216 16.8481 103.657 16.9941 103.022 16.9941C102.053 16.9941 101.277 16.6725 100.693 16.0293C100.113 15.3818 99.8232 14.5207 99.8232 13.4458V13.3696ZM101.366 13.5029C101.366 14.2096 101.512 14.764 101.804 15.166C102.096 15.5638 102.502 15.7627 103.022 15.7627C103.543 15.7627 103.947 15.5596 104.235 15.1533C104.527 14.7471 104.673 14.1525 104.673 13.3696C104.673 12.6756 104.523 12.1255 104.222 11.7192C103.926 11.313 103.522 11.1099 103.01 11.1099C102.506 11.1099 102.106 11.3109 101.81 11.7129C101.514 12.1107 101.366 12.7074 101.366 13.5029ZM114.156 14.855L116.505 7.625H118.27L114.943 16.8672H113.388L110.075 7.625H111.833L114.156 14.855ZM120.809 16.8672H119.266V9.99902H120.809V16.8672ZM119.171 8.21533C119.171 7.97835 119.245 7.78158 119.393 7.625C119.545 7.46842 119.761 7.39014 120.041 7.39014C120.32 7.39014 120.536 7.46842 120.688 7.625C120.84 7.78158 120.917 7.97835 120.917 8.21533C120.917 8.44808 120.84 8.64274 120.688 8.79932C120.536 8.95166 120.32 9.02783 120.041 9.02783C119.761 9.02783 119.545 8.95166 119.393 8.79932C119.245 8.64274 119.171 8.44808 119.171 8.21533ZM125.315 15.7627C125.701 15.7627 126.02 15.6506 126.274 15.4263C126.528 15.202 126.663 14.9248 126.68 14.5947H128.134C128.117 15.0221 127.984 15.422 127.734 15.7944C127.484 16.1626 127.146 16.4546 126.718 16.6704C126.291 16.8862 125.83 16.9941 125.334 16.9941C124.374 16.9941 123.612 16.6831 123.049 16.061C122.486 15.439 122.205 14.5799 122.205 13.4839V13.3252C122.205 12.2799 122.484 11.4442 123.043 10.8179C123.602 10.1873 124.363 9.87207 125.328 9.87207C126.145 9.87207 126.809 10.1112 127.321 10.5894C127.838 11.0633 128.108 11.6875 128.134 12.4619H126.68C126.663 12.0684 126.528 11.7446 126.274 11.4907C126.024 11.2368 125.705 11.1099 125.315 11.1099C124.816 11.1099 124.431 11.2918 124.16 11.6558C123.889 12.0155 123.752 12.5635 123.748 13.2998V13.5474C123.748 14.2922 123.881 14.8486 124.147 15.2168C124.418 15.5807 124.808 15.7627 125.315 15.7627ZM131.231 8.32959V9.99902H132.444V11.1416H131.231V14.9756C131.231 15.238 131.282 15.4284 131.384 15.5469C131.49 15.6611 131.676 15.7183 131.942 15.7183C132.12 15.7183 132.3 15.6971 132.482 15.6548V16.8481C132.131 16.9455 131.792 16.9941 131.466 16.9941C130.281 16.9941 129.689 16.3403 129.689 15.0327V11.1416H128.559V9.99902H129.689V8.32959H131.231ZM133.148 13.3696C133.148 12.6968 133.282 12.0916 133.548 11.5542C133.815 11.0125 134.189 10.5978 134.672 10.3101C135.154 10.0181 135.709 9.87207 136.335 9.87207C137.262 9.87207 138.013 10.1704 138.588 10.7671C139.168 11.3638 139.481 12.1551 139.528 13.1411L139.534 13.5029C139.534 14.18 139.403 14.7852 139.141 15.3184C138.882 15.8516 138.51 16.2642 138.023 16.5562C137.541 16.8481 136.982 16.9941 136.348 16.9941C135.379 16.9941 134.602 16.6725 134.018 16.0293C133.438 15.3818 133.148 14.5207 133.148 13.4458V13.3696ZM134.691 13.5029C134.691 14.2096 134.837 14.764 135.129 15.166C135.421 15.5638 135.827 15.7627 136.348 15.7627C136.868 15.7627 137.272 15.5596 137.56 15.1533C137.852 14.7471 137.998 14.1525 137.998 13.3696C137.998 12.6756 137.848 12.1255 137.547 11.7192C137.251 11.313 136.847 11.1099 136.335 11.1099C135.831 11.1099 135.431 11.3109 135.135 11.7129C134.839 12.1107 134.691 12.7074 134.691 13.5029ZM144.435 11.4082C144.231 11.3743 144.022 11.3574 143.806 11.3574C143.099 11.3574 142.623 11.6283 142.378 12.1699V16.8672H140.835V9.99902H142.308L142.346 10.7671C142.719 10.1704 143.235 9.87207 143.895 9.87207C144.115 9.87207 144.297 9.90169 144.441 9.96094L144.435 11.4082ZM148.357 13.3823C148.357 12.3244 148.603 11.4759 149.094 10.8369C149.585 10.1937 150.243 9.87207 151.068 9.87207C151.796 9.87207 152.384 10.126 152.833 10.6338V7.11719H154.375V16.8672H152.979L152.902 16.1562C152.441 16.7148 151.825 16.9941 151.055 16.9941C150.251 16.9941 149.599 16.6704 149.1 16.0229C148.605 15.3755 148.357 14.4953 148.357 13.3823ZM149.9 13.5156C149.9 14.2139 150.033 14.7598 150.3 15.1533C150.571 15.5426 150.954 15.7373 151.449 15.7373C152.079 15.7373 152.541 15.4559 152.833 14.8931V11.9604C152.549 11.4103 152.092 11.1353 151.461 11.1353C150.962 11.1353 150.577 11.3341 150.306 11.7319C150.035 12.1255 149.9 12.7201 149.9 13.5156ZM160.088 16.8672C160.02 16.736 159.961 16.5223 159.91 16.2261C159.419 16.7381 158.818 16.9941 158.107 16.9941C157.418 16.9941 156.855 16.7974 156.419 16.4038C155.983 16.0103 155.765 15.5236 155.765 14.9438C155.765 14.2118 156.036 13.651 156.578 13.2617C157.124 12.8682 157.902 12.6714 158.914 12.6714H159.859V12.2207C159.859 11.8652 159.76 11.5817 159.561 11.3701C159.362 11.1543 159.06 11.0464 158.653 11.0464C158.302 11.0464 158.014 11.1353 157.79 11.313C157.566 11.4865 157.454 11.7087 157.454 11.9795H155.911C155.911 11.6029 156.036 11.2516 156.286 10.9258C156.535 10.5957 156.874 10.3376 157.301 10.1514C157.733 9.96517 158.213 9.87207 158.742 9.87207C159.546 9.87207 160.187 10.0752 160.666 10.4814C161.144 10.8835 161.389 11.4505 161.402 12.1826V15.2803C161.402 15.8981 161.489 16.3911 161.662 16.7593V16.8672H160.088ZM158.393 15.7563C158.698 15.7563 158.983 15.6823 159.25 15.5342C159.521 15.3861 159.724 15.1872 159.859 14.9375V13.6426H159.028C158.457 13.6426 158.027 13.742 157.739 13.9409C157.451 14.1398 157.308 14.4212 157.308 14.7852C157.308 15.0814 157.405 15.3184 157.6 15.4961C157.799 15.6696 158.063 15.7563 158.393 15.7563ZM171.234 14.4868C171.234 14.0806 171.09 13.7674 170.803 13.5474C170.519 13.3273 170.005 13.1051 169.26 12.8809C168.515 12.6566 167.923 12.4069 167.483 12.1318C166.641 11.6029 166.22 10.9131 166.22 10.0625C166.22 9.31771 166.522 8.7041 167.127 8.22168C167.737 7.73926 168.526 7.49805 169.495 7.49805C170.138 7.49805 170.712 7.61654 171.215 7.85352C171.719 8.09049 172.115 8.42904 172.402 8.86914C172.69 9.30501 172.834 9.78955 172.834 10.3228H171.234C171.234 9.84033 171.082 9.4637 170.777 9.19287C170.477 8.91781 170.045 8.78027 169.482 8.78027C168.958 8.78027 168.549 8.89242 168.257 9.1167C167.97 9.34098 167.826 9.65413 167.826 10.0562C167.826 10.3947 167.982 10.6782 168.295 10.9067C168.609 11.131 169.125 11.3511 169.844 11.5669C170.564 11.7785 171.141 12.0218 171.577 12.2969C172.013 12.5677 172.333 12.8809 172.536 13.2363C172.739 13.5876 172.84 14.0002 172.84 14.4741C172.84 15.2443 172.544 15.8579 171.952 16.3149C171.363 16.7677 170.564 16.9941 169.552 16.9941C168.884 16.9941 168.268 16.8714 167.705 16.626C167.146 16.3763 166.711 16.0335 166.397 15.5977C166.089 15.1618 165.934 14.654 165.934 14.0742H167.54C167.54 14.599 167.714 15.0052 168.061 15.293C168.408 15.5807 168.905 15.7246 169.552 15.7246C170.111 15.7246 170.53 15.6125 170.809 15.3882C171.093 15.1597 171.234 14.8592 171.234 14.4868ZM175.741 16.8672H174.199V9.99902H175.741V16.8672ZM174.104 8.21533C174.104 7.97835 174.178 7.78158 174.326 7.625C174.478 7.46842 174.694 7.39014 174.973 7.39014C175.252 7.39014 175.468 7.46842 175.621 7.625C175.773 7.78158 175.849 7.97835 175.849 8.21533C175.849 8.44808 175.773 8.64274 175.621 8.79932C175.468 8.95166 175.252 9.02783 174.973 9.02783C174.694 9.02783 174.478 8.95166 174.326 8.79932C174.178 8.64274 174.104 8.44808 174.104 8.21533ZM179.067 16.8672H177.525V7.11719H179.067V16.8672ZM183.174 14.9121L184.628 9.99902H186.221L183.841 16.8672H182.501L180.102 9.99902H181.702L183.174 14.9121ZM191.191 16.8672C191.124 16.736 191.064 16.5223 191.014 16.2261C190.523 16.7381 189.922 16.9941 189.211 16.9941C188.521 16.9941 187.958 16.7974 187.522 16.4038C187.087 16.0103 186.869 15.5236 186.869 14.9438C186.869 14.2118 187.139 13.651 187.681 13.2617C188.227 12.8682 189.006 12.6714 190.017 12.6714H190.963V12.2207C190.963 11.8652 190.863 11.5817 190.665 11.3701C190.466 11.1543 190.163 11.0464 189.757 11.0464C189.406 11.0464 189.118 11.1353 188.894 11.313C188.669 11.4865 188.557 11.7087 188.557 11.9795H187.015C187.015 11.6029 187.139 11.2516 187.389 10.9258C187.639 10.5957 187.977 10.3376 188.405 10.1514C188.836 9.96517 189.317 9.87207 189.846 9.87207C190.65 9.87207 191.291 10.0752 191.769 10.4814C192.247 10.8835 192.493 11.4505 192.505 12.1826V15.2803C192.505 15.8981 192.592 16.3911 192.766 16.7593V16.8672H191.191ZM189.497 15.7563C189.801 15.7563 190.087 15.6823 190.354 15.5342C190.624 15.3861 190.827 15.1872 190.963 14.9375V13.6426H190.131C189.56 13.6426 189.131 13.742 188.843 13.9409C188.555 14.1398 188.411 14.4212 188.411 14.7852C188.411 15.0814 188.508 15.3184 188.703 15.4961C188.902 15.6696 189.167 15.7563 189.497 15.7563Z" fill="#555555"/>
<defs>
<filter id="filter0_d" x="0.370605" y="0.867188" width="58" height="58" filterUnits="userSpaceOnUse" color-interpolation-filters="sRGB">
<feFlood flood-opacity="0" result="BackgroundImageFix"/>
<feColorMatrix in="SourceAlpha" type="matrix" values="0 0 0 0 0 0 0 0 0 0 0 0 0 0 0 0 0 0 127 0" result="hardAlpha"/>
<feOffset dy="2"/>
<feGaussianBlur stdDeviation="2"/>
<feColorMatrix type="matrix" values="0 0 0 0 0 0 0 0 0 0 0 0 0 0 0 0 0 0 0.25 0"/>
<feBlend mode="normal" in2="BackgroundImageFix" result="effect1_dropShadow"/>
<feBlend mode="normal" in="SourceGraphic" in2="effect1_dropShadow" result="shape"/>
</filter>
</defs>
</svg>
