<svg width="217" height="59" viewBox="0 0 217 59" fill="none" xmlns="http://www.w3.org/2000/svg">
<g filter="url(#filter0_d)">
<circle cx="29.3706" cy="27.8672" r="25" fill="white"/>
</g>
<path d="M43.8986 42.793V46.1775C43.8986 46.5586 43.5609 46.8672 43.1439 46.8672H15.5974C15.1804 46.8672 14.8427 46.5586 14.8427 46.1775V42.793C14.8427 40.1905 16.536 37.9482 18.9709 36.937C17.9774 36.2147 16.4632 35.2438 15.3615 33.1551C13.8271 30.2501 14.0898 26.823 16.0445 24.1405C17.1068 22.6836 17.6728 20.9732 17.6728 19.2232V15.4879C17.6728 10.7267 21.8963 6.86719 27.1066 6.86719H31.6348C36.845 6.86719 41.0685 10.7267 41.0685 15.4879C41.0685 19.4437 40.9628 20.2183 41.4845 21.7913C42.2208 24.0155 43.1934 24.2907 43.943 26.5543C45.1213 30.1124 43.8179 33.9928 40.6063 36.3293L39.7704 36.937C42.2053 37.9482 43.8986 40.1905 43.8986 42.793Z" fill="#FFDFBA"/>
<path d="M43.8987 42.7932V46.1777C43.8987 46.5585 43.5608 46.8673 43.144 46.8673H15.5975C15.1807 46.8673 14.8428 46.5585 14.8428 46.1777V42.7932C14.8428 39.2447 17.9907 36.3648 21.8775 36.3648C22.4558 36.3648 23.0049 36.2501 23.4982 36.0449L23.5218 36.0915L28.9088 39.9025C29.1808 40.0949 29.5607 40.0949 29.8328 39.9025L35.2197 36.0915L35.2433 36.0449C35.7367 36.2501 36.2857 36.3648 36.864 36.3648C40.7357 36.3648 43.8987 39.231 43.8987 42.7932Z" fill="#323751"/>
<path d="M37.9958 19.4762C38.3964 19.497 38.7101 19.7979 38.7101 20.1646V24.2927C38.7101 27.8505 36.3281 30.8996 32.9413 32.1806C26.8172 34.5037 20.0312 30.3769 20.0312 24.2927V20.2246C20.0312 19.8204 20.4101 19.501 20.8507 19.5375C25.3776 19.9125 29.8356 18.8679 33.579 16.5634C34.0047 16.3013 34.5909 16.4955 34.7254 16.9482C35.191 18.5167 36.4611 19.3962 37.9958 19.4762Z" fill="#FFEBD2"/>
<path d="M40.6061 36.3293L39.7703 36.937C38.8844 36.5698 37.9005 36.3646 36.8637 36.3646C34.7101 36.3646 32.9553 34.7754 32.9553 32.8008V32.212L32.9412 32.1801C36.3279 30.8991 38.7099 27.8499 38.7099 24.2922V20.1641C38.7099 19.7974 38.3962 19.4965 37.9956 19.4756C36.4703 19.3962 35.1939 18.5262 34.7252 16.9478C34.5908 16.495 34.0046 16.3009 33.5788 16.563C29.8379 18.8659 25.3802 19.9123 20.8505 19.537C20.4099 19.5006 20.0311 19.8199 20.0311 20.2242V24.2923C20.0311 27.85 22.4131 30.8992 25.7998 32.1802L25.7857 32.2121V32.8009C25.7857 34.7751 24.0314 36.3647 21.8773 36.3647C20.8405 36.3647 19.8566 36.5699 18.9707 36.9371L18.1349 36.3293C14.0774 33.3749 13.1739 28.0798 16.0444 24.1406C17.1066 22.6837 17.6726 20.9733 17.6726 19.2233V15.4879C17.6726 10.7268 21.8963 6.86719 27.1064 6.86719H31.6346C36.8447 6.86719 41.0684 10.7268 41.0684 15.4879V19.2232C41.0684 20.9712 41.6344 22.6836 42.6966 24.1405C45.5776 28.0941 44.6483 33.3886 40.6061 36.3293Z" fill="#42434D"/>
<path d="M33.0621 33.6271C30.7379 34.5162 28.1837 34.5851 25.6792 33.6271C25.8071 33.1421 25.7858 32.828 25.7858 32.2116L25.8 32.1797C28.0718 33.0414 30.665 33.0431 32.9413 32.1797L32.9555 32.2116C32.9555 32.8282 32.9341 33.1423 33.0621 33.6271Z" fill="#FFD6A6"/>
<path d="M35.8962 7.79495C36.8595 8.2415 36.4409 9.5852 35.3654 9.49219C35.0689 9.4665 34.7684 9.45339 34.4645 9.45339H29.9363C24.7262 9.45339 20.5025 13.313 20.5025 18.0741V19.123C20.5025 19.7424 20.0309 19.7224 20.0309 20.2241C20.0309 24.7777 20.051 24.4894 19.9779 24.6859C19.2379 26.6754 18.3491 26.9633 17.6281 29.1405C17.2354 30.3263 17.1193 31.5475 17.2554 32.7326C17.3664 33.6999 15.8926 34.1625 15.3612 33.1551C13.8377 30.2709 14.0763 26.8411 16.0442 24.1405C17.1064 22.6836 17.6724 20.9732 17.6724 19.2232V15.4879C17.6724 10.7268 21.8961 6.86719 27.1062 6.86719H31.6344C33.168 6.86719 34.6161 7.20158 35.8962 7.79495Z" fill="#4D4E59"/>
<path d="M27.5802 30.0084C28.9895 30.8705 27.9154 32.8645 26.3152 32.3513C22.7977 31.2233 20.0312 28.2234 20.0312 24.2912V20.2231C20.0312 19.8188 20.4105 19.4998 20.851 19.536C21.2125 19.566 21.6095 19.5896 22.0379 19.6016C22.8133 19.6232 23.4274 20.2083 23.4274 20.9171V22.912C23.4274 25.9142 25.1025 28.4928 27.5802 30.0084Z" fill="#FFF3E4"/>
<path d="M25.0777 37.1923C25.5255 37.509 25.2889 38.1731 24.7226 38.1751C20.7291 38.1887 17.6729 41.119 17.6729 44.6035V46.8673H15.5975C15.1807 46.8673 14.8428 46.5585 14.8428 46.1777V42.7932C14.8428 39.2447 17.9908 36.3648 21.8775 36.3648C22.4558 36.3648 23.0049 36.2501 23.4982 36.0449L23.5218 36.0915L25.0777 37.1923Z" fill="#5F82A6"/>
<path d="M33.6637 37.1923C33.216 37.509 33.4526 38.1731 34.0188 38.1751C38.0124 38.1887 41.0686 41.119 41.0686 44.6035V46.8673H43.144C43.5608 46.8673 43.8987 46.5585 43.8987 46.1777V42.7932C43.8987 39.2447 40.7506 36.3648 36.8639 36.3648C36.2856 36.3648 35.7366 36.2501 35.2432 36.0449L35.2196 36.0915L33.6637 37.1923Z" fill="#232842"/>
<path d="M79.6362 29.6914C79.5308 30.5938 79.1968 31.291 78.6343 31.7832C78.0757 32.2715 77.3315 32.5156 76.4019 32.5156C75.394 32.5156 74.5854 32.1543 73.9761 31.4316C73.3706 30.709 73.0679 29.7422 73.0679 28.5312V27.7109C73.0679 26.918 73.2085 26.2207 73.4897 25.6191C73.7749 25.0176 74.1772 24.5566 74.6968 24.2363C75.2163 23.9121 75.8179 23.75 76.5015 23.75C77.4077 23.75 78.1343 24.0039 78.6812 24.5117C79.228 25.0156 79.5464 25.7148 79.6362 26.6094H78.5054C78.4077 25.9297 78.1948 25.4375 77.8667 25.1328C77.5425 24.8281 77.0874 24.6758 76.5015 24.6758C75.7827 24.6758 75.2183 24.9414 74.8081 25.4727C74.4019 26.0039 74.1987 26.7598 74.1987 27.7402V28.5664C74.1987 29.4922 74.3921 30.2285 74.7788 30.7754C75.1655 31.3223 75.7065 31.5957 76.4019 31.5957C77.0269 31.5957 77.5054 31.4551 77.8374 31.1738C78.1733 30.8887 78.396 30.3945 78.5054 29.6914H79.6362ZM80.7202 29.1699C80.7202 28.5488 80.8413 27.9902 81.0835 27.4941C81.3296 26.998 81.6694 26.6152 82.103 26.3457C82.5405 26.0762 83.0386 25.9414 83.5972 25.9414C84.4604 25.9414 85.1577 26.2402 85.689 26.8379C86.2241 27.4355 86.4917 28.2305 86.4917 29.2227V29.2988C86.4917 29.916 86.3726 30.4707 86.1343 30.9629C85.8999 31.4512 85.562 31.832 85.1206 32.1055C84.6831 32.3789 84.1792 32.5156 83.6089 32.5156C82.7495 32.5156 82.0522 32.2168 81.5171 31.6191C80.9858 31.0215 80.7202 30.2305 80.7202 29.2461V29.1699ZM81.8101 29.2988C81.8101 30.002 81.9722 30.5664 82.2964 30.9922C82.6245 31.418 83.062 31.6309 83.6089 31.6309C84.1597 31.6309 84.5972 31.416 84.9214 30.9863C85.2456 30.5527 85.4077 29.9473 85.4077 29.1699C85.4077 28.4746 85.2417 27.9121 84.9097 27.4824C84.5815 27.0488 84.144 26.832 83.5972 26.832C83.062 26.832 82.6304 27.0449 82.3022 27.4707C81.9741 27.8965 81.8101 28.5059 81.8101 29.2988ZM88.8765 26.0586L88.9116 26.8555C89.396 26.2461 90.0288 25.9414 90.8101 25.9414C92.1499 25.9414 92.8257 26.6973 92.8374 28.209V32.3984H91.7534V28.2031C91.7495 27.7461 91.644 27.4082 91.437 27.1895C91.2339 26.9707 90.9155 26.8613 90.4819 26.8613C90.1304 26.8613 89.8218 26.9551 89.5562 27.1426C89.2905 27.3301 89.0835 27.5762 88.9351 27.8809V32.3984H87.8511V26.0586H88.8765ZM95.9429 24.5234V26.0586H97.1265V26.8965H95.9429V30.8281C95.9429 31.082 95.9956 31.2734 96.1011 31.4023C96.2065 31.5273 96.3862 31.5898 96.6401 31.5898C96.7651 31.5898 96.937 31.5664 97.1558 31.5195V32.3984C96.8706 32.4766 96.5933 32.5156 96.3237 32.5156C95.8394 32.5156 95.4741 32.3691 95.228 32.0762C94.9819 31.7832 94.8589 31.3672 94.8589 30.8281V26.8965H93.7046V26.0586H94.8589V24.5234H95.9429ZM102.312 32.3984C102.25 32.2734 102.199 32.0508 102.16 31.7305C101.656 32.2539 101.054 32.5156 100.355 32.5156C99.73 32.5156 99.2163 32.3398 98.814 31.9883C98.4155 31.6328 98.2163 31.1836 98.2163 30.6406C98.2163 29.9805 98.4663 29.4688 98.9663 29.1055C99.4702 28.7383 100.177 28.5547 101.087 28.5547H102.142V28.0566C102.142 27.6777 102.029 27.377 101.802 27.1543C101.576 26.9277 101.242 26.8145 100.8 26.8145C100.414 26.8145 100.089 26.9121 99.8276 27.1074C99.5659 27.3027 99.4351 27.5391 99.4351 27.8164H98.3452C98.3452 27.5 98.4565 27.1953 98.6792 26.9023C98.9058 26.6055 99.2104 26.3711 99.5933 26.1992C99.98 26.0273 100.404 25.9414 100.865 25.9414C101.595 25.9414 102.167 26.125 102.582 26.4922C102.996 26.8555 103.21 27.3574 103.226 27.998V30.916C103.226 31.498 103.3 31.9609 103.449 32.3047V32.3984H102.312ZM100.513 31.5723C100.853 31.5723 101.175 31.4844 101.48 31.3086C101.785 31.1328 102.005 30.9043 102.142 30.623V29.3223H101.292C99.9644 29.3223 99.3003 29.7109 99.3003 30.4883C99.3003 30.8281 99.4136 31.0938 99.6401 31.2852C99.8667 31.4766 100.158 31.5723 100.513 31.5723ZM111.353 32.3984H110.263V25.1738L108.078 25.9766V24.9922L111.183 23.8262H111.353V32.3984ZM120.119 32.3984H114.529V31.6191L117.482 28.3379C117.919 27.8418 118.22 27.4395 118.384 27.1309C118.552 26.8184 118.636 26.4961 118.636 26.1641C118.636 25.7188 118.501 25.3535 118.232 25.0684C117.962 24.7832 117.603 24.6406 117.154 24.6406C116.615 24.6406 116.195 24.7949 115.894 25.1035C115.597 25.4082 115.449 25.834 115.449 26.3809H114.365C114.365 25.5957 114.617 24.9609 115.121 24.4766C115.628 23.9922 116.306 23.75 117.154 23.75C117.947 23.75 118.574 23.959 119.035 24.377C119.496 24.791 119.726 25.3438 119.726 26.0352C119.726 26.875 119.191 27.875 118.121 29.0352L115.835 31.5137H120.119V32.3984ZM122.843 27.6055H123.658C124.169 27.5977 124.572 27.4629 124.865 27.2012C125.158 26.9395 125.304 26.5859 125.304 26.1406C125.304 25.1406 124.806 24.6406 123.81 24.6406C123.341 24.6406 122.966 24.7754 122.685 25.0449C122.408 25.3105 122.269 25.6641 122.269 26.1055H121.185C121.185 25.4297 121.431 24.8691 121.923 24.4238C122.419 23.9746 123.048 23.75 123.81 23.75C124.615 23.75 125.246 23.9629 125.703 24.3887C126.16 24.8145 126.388 25.4062 126.388 26.1641C126.388 26.5352 126.267 26.8945 126.025 27.2422C125.787 27.5898 125.46 27.8496 125.046 28.0215C125.515 28.1699 125.876 28.416 126.13 28.7598C126.388 29.1035 126.517 29.5234 126.517 30.0195C126.517 30.7852 126.267 31.3926 125.767 31.8418C125.267 32.291 124.617 32.5156 123.816 32.5156C123.015 32.5156 122.363 32.2988 121.859 31.8652C121.359 31.4316 121.109 30.8594 121.109 30.1484H122.199C122.199 30.5977 122.345 30.957 122.638 31.2266C122.931 31.4961 123.324 31.6309 123.816 31.6309C124.339 31.6309 124.74 31.4941 125.017 31.2207C125.294 30.9473 125.433 30.5547 125.433 30.043C125.433 29.5469 125.281 29.166 124.976 28.9004C124.671 28.6348 124.232 28.498 123.658 28.4902H122.843V27.6055ZM132.582 29.5332H133.765V30.418H132.582V32.3984H131.492V30.418H127.607V29.7793L131.427 23.8672H132.582V29.5332ZM128.837 29.5332H131.492V25.3496L131.363 25.584L128.837 29.5332ZM135.242 28.1211L135.675 23.8672H140.046V24.8691H136.595L136.337 27.1953C136.755 26.9492 137.23 26.8262 137.761 26.8262C138.539 26.8262 139.156 27.084 139.613 27.5996C140.07 28.1113 140.298 28.8047 140.298 29.6797C140.298 30.5586 140.06 31.252 139.583 31.7598C139.111 32.2637 138.449 32.5156 137.597 32.5156C136.843 32.5156 136.228 32.3066 135.751 31.8887C135.275 31.4707 135.003 30.8926 134.937 30.1543H135.962C136.029 30.6426 136.203 31.0117 136.484 31.2617C136.765 31.5078 137.136 31.6309 137.597 31.6309C138.101 31.6309 138.496 31.459 138.781 31.1152C139.07 30.7715 139.214 30.2969 139.214 29.6914C139.214 29.1211 139.058 28.6641 138.746 28.3203C138.437 27.9727 138.025 27.7988 137.509 27.7988C137.037 27.7988 136.666 27.9023 136.396 28.1094L136.109 28.3438L135.242 28.1211ZM143.849 29.2168H140.99V28.332H143.849V29.2168ZM150.148 28.7598C150.148 30.0293 149.931 30.9727 149.498 31.5898C149.064 32.207 148.386 32.5156 147.464 32.5156C146.554 32.5156 145.88 32.2148 145.443 31.6133C145.005 31.0078 144.779 30.1055 144.763 28.9062V27.459C144.763 26.2051 144.98 25.2734 145.414 24.6641C145.847 24.0547 146.527 23.75 147.453 23.75C148.371 23.75 149.046 24.0449 149.48 24.6348C149.914 25.2207 150.136 26.127 150.148 27.3535V28.7598ZM149.064 27.2773C149.064 26.3594 148.935 25.6914 148.677 25.2734C148.419 24.8516 148.011 24.6406 147.453 24.6406C146.898 24.6406 146.494 24.8496 146.24 25.2676C145.986 25.6855 145.855 26.3281 145.847 27.1953V28.9297C145.847 29.8516 145.98 30.5332 146.246 30.9746C146.515 31.4121 146.921 31.6309 147.464 31.6309C148 31.6309 148.396 31.4238 148.654 31.0098C148.916 30.5957 149.052 29.9434 149.064 29.0527V27.2773ZM73.3608 46.3984V37.8672H76.1499C77.0757 37.8672 77.771 38.0586 78.2358 38.4414C78.7046 38.8242 78.939 39.3906 78.939 40.1406C78.939 40.5391 78.8257 40.8926 78.5991 41.2012C78.3726 41.5059 78.064 41.7422 77.6733 41.9102C78.1343 42.0391 78.4976 42.2852 78.7632 42.6484C79.0327 43.0078 79.1675 43.4375 79.1675 43.9375C79.1675 44.7031 78.9194 45.3047 78.4233 45.7422C77.9272 46.1797 77.2261 46.3984 76.3198 46.3984H73.3608ZM74.4858 42.4082V45.4785H76.3433C76.8667 45.4785 77.2788 45.3438 77.5796 45.0742C77.8843 44.8008 78.0366 44.4258 78.0366 43.9492C78.0366 42.9219 77.478 42.4082 76.3608 42.4082H74.4858ZM74.4858 41.5059H76.1851C76.6772 41.5059 77.0698 41.3828 77.3628 41.1367C77.6597 40.8906 77.8081 40.5566 77.8081 40.1348C77.8081 39.666 77.6714 39.3262 77.3979 39.1152C77.1245 38.9004 76.7085 38.793 76.1499 38.793H74.4858V41.5059ZM84.5815 46.3984C84.519 46.2734 84.4683 46.0508 84.4292 45.7305C83.9253 46.2539 83.3237 46.5156 82.6245 46.5156C81.9995 46.5156 81.4858 46.3398 81.0835 45.9883C80.6851 45.6328 80.4858 45.1836 80.4858 44.6406C80.4858 43.9805 80.7358 43.4688 81.2358 43.1055C81.7397 42.7383 82.4468 42.5547 83.3569 42.5547H84.4116V42.0566C84.4116 41.6777 84.2983 41.377 84.0718 41.1543C83.8452 40.9277 83.5112 40.8145 83.0698 40.8145C82.6831 40.8145 82.3589 40.9121 82.0972 41.1074C81.8354 41.3027 81.7046 41.5391 81.7046 41.8164H80.6147C80.6147 41.5 80.7261 41.1953 80.9487 40.9023C81.1753 40.6055 81.48 40.3711 81.8628 40.1992C82.2495 40.0273 82.6733 39.9414 83.1343 39.9414C83.8647 39.9414 84.437 40.125 84.8511 40.4922C85.2651 40.8555 85.48 41.3574 85.4956 41.998V44.916C85.4956 45.498 85.5698 45.9609 85.7183 46.3047V46.3984H84.5815ZM82.7827 45.5723C83.1226 45.5723 83.4448 45.4844 83.7495 45.3086C84.0542 45.1328 84.2749 44.9043 84.4116 44.623V43.3223H83.562C82.2339 43.3223 81.5698 43.7109 81.5698 44.4883C81.5698 44.8281 81.6831 45.0938 81.9097 45.2852C82.1362 45.4766 82.4272 45.5723 82.7827 45.5723ZM88.2202 40.0586L88.2554 40.8555C88.7397 40.2461 89.3726 39.9414 90.1538 39.9414C91.4937 39.9414 92.1694 40.6973 92.1812 42.209V46.3984H91.0972V42.2031C91.0933 41.7461 90.9878 41.4082 90.7808 41.1895C90.5776 40.9707 90.2593 40.8613 89.8257 40.8613C89.4741 40.8613 89.1655 40.9551 88.8999 41.1426C88.6343 41.3301 88.4272 41.5762 88.2788 41.8809V46.3984H87.1948V40.0586H88.2202ZM93.5522 43.1758C93.5522 42.1797 93.7808 41.3926 94.2378 40.8145C94.6948 40.2324 95.3081 39.9414 96.0776 39.9414C96.8276 39.9414 97.4194 40.1934 97.853 40.6973L97.8999 40.0586H98.896V48.8359H97.812V45.8125C97.3745 46.2812 96.7925 46.5156 96.0659 46.5156C95.3003 46.5156 94.689 46.2188 94.2319 45.625C93.7788 45.0273 93.5522 44.2363 93.5522 43.252V43.1758ZM94.6362 43.2988C94.6362 44.0254 94.7886 44.5957 95.0933 45.0098C95.4019 45.4238 95.8159 45.6309 96.3354 45.6309C96.98 45.6309 97.4722 45.3457 97.812 44.7754V41.6699C97.4683 41.1113 96.98 40.832 96.3472 40.832C95.8237 40.832 95.4077 41.041 95.0991 41.459C94.7905 41.873 94.6362 42.4863 94.6362 43.2988ZM104.55 45.7715C104.128 46.2676 103.509 46.5156 102.693 46.5156C102.017 46.5156 101.501 46.3203 101.146 45.9297C100.794 45.5352 100.617 44.9531 100.613 44.1836V40.0586H101.697V44.1543C101.697 45.1152 102.087 45.5957 102.869 45.5957C103.697 45.5957 104.248 45.2871 104.521 44.6699V40.0586H105.605V46.3984H104.574L104.55 45.7715ZM108.435 46.3984H107.351V40.0586H108.435V46.3984ZM107.263 38.377C107.263 38.2012 107.316 38.0527 107.421 37.9316C107.531 37.8105 107.691 37.75 107.902 37.75C108.113 37.75 108.273 37.8105 108.382 37.9316C108.492 38.0527 108.546 38.2012 108.546 38.377C108.546 38.5527 108.492 38.6992 108.382 38.8164C108.273 38.9336 108.113 38.9922 107.902 38.9922C107.691 38.9922 107.531 38.9336 107.421 38.8164C107.316 38.6992 107.263 38.5527 107.263 38.377ZM111.201 40.0586L111.236 40.8555C111.72 40.2461 112.353 39.9414 113.134 39.9414C114.474 39.9414 115.15 40.6973 115.162 42.209V46.3984H114.078V42.2031C114.074 41.7461 113.968 41.4082 113.761 41.1895C113.558 40.9707 113.24 40.8613 112.806 40.8613C112.455 40.8613 112.146 40.9551 111.88 41.1426C111.615 41.3301 111.408 41.5762 111.259 41.8809V46.3984H110.175V40.0586H111.201ZM117.88 40.8262C118.361 40.2363 118.986 39.9414 119.755 39.9414C121.095 39.9414 121.771 40.6973 121.783 42.209V46.3984H120.699V42.2031C120.695 41.7461 120.589 41.4082 120.382 41.1895C120.179 40.9707 119.861 40.8613 119.427 40.8613C119.076 40.8613 118.767 40.9551 118.501 41.1426C118.236 41.3301 118.029 41.5762 117.88 41.8809V46.3984H116.796V37.3984H117.88V40.8262ZM123.119 43.1699C123.119 42.5488 123.24 41.9902 123.482 41.4941C123.728 40.998 124.068 40.6152 124.501 40.3457C124.939 40.0762 125.437 39.9414 125.996 39.9414C126.859 39.9414 127.556 40.2402 128.087 40.8379C128.623 41.4355 128.89 42.2305 128.89 43.2227V43.2988C128.89 43.916 128.771 44.4707 128.533 44.9629C128.298 45.4512 127.96 45.832 127.519 46.1055C127.082 46.3789 126.578 46.5156 126.007 46.5156C125.148 46.5156 124.451 46.2168 123.916 45.6191C123.384 45.0215 123.119 44.2305 123.119 43.2461V43.1699ZM124.208 43.2988C124.208 44.002 124.371 44.5664 124.695 44.9922C125.023 45.418 125.46 45.6309 126.007 45.6309C126.558 45.6309 126.996 45.416 127.32 44.9863C127.644 44.5527 127.806 43.9473 127.806 43.1699C127.806 42.4746 127.64 41.9121 127.308 41.4824C126.98 41.0488 126.542 40.832 125.996 40.832C125.46 40.832 125.029 41.0449 124.701 41.4707C124.373 41.8965 124.208 42.5059 124.208 43.2988Z" fill="#555555"/>
<path d="M74.9785 14.585H79.1743V15.8672H73.3726V6.625H74.9785V14.585ZM84.3286 15.1943C83.8758 15.7275 83.2326 15.9941 82.3989 15.9941C81.6541 15.9941 81.0892 15.7762 80.7041 15.3403C80.3232 14.9045 80.1328 14.2739 80.1328 13.4487V8.99902H81.6753V13.4297C81.6753 14.3014 82.0371 14.7373 82.7607 14.7373C83.5098 14.7373 84.0155 14.4686 84.2778 13.9312V8.99902H85.8203V15.8672H84.3667L84.3286 15.1943ZM89.0322 15.8672H87.4897V8.99902H89.0322V15.8672ZM87.3945 7.21533C87.3945 6.97835 87.4686 6.78158 87.6167 6.625C87.769 6.46842 87.9849 6.39014 88.2642 6.39014C88.5435 6.39014 88.7593 6.46842 88.9116 6.625C89.064 6.78158 89.1401 6.97835 89.1401 7.21533C89.1401 7.44808 89.064 7.64274 88.9116 7.79932C88.7593 7.95166 88.5435 8.02783 88.2642 8.02783C87.9849 8.02783 87.769 7.95166 87.6167 7.79932C87.4686 7.64274 87.3945 7.44808 87.3945 7.21533ZM92.3647 14.6357H96.021V15.8672H90.4478V14.8579L93.9326 10.2432H90.5112V8.99902H95.8877V9.97656L92.3647 14.6357ZM101.359 15.8672C101.292 15.736 101.232 15.5223 101.182 15.2261C100.691 15.7381 100.09 15.9941 99.3789 15.9941C98.6891 15.9941 98.1263 15.7974 97.6904 15.4038C97.2546 15.0103 97.0366 14.5236 97.0366 13.9438C97.0366 13.2118 97.3075 12.651 97.8491 12.2617C98.395 11.8682 99.1737 11.6714 100.185 11.6714H101.131V11.2207C101.131 10.8652 101.031 10.5817 100.833 10.3701C100.634 10.1543 100.331 10.0464 99.9248 10.0464C99.5736 10.0464 99.2858 10.1353 99.0615 10.313C98.8372 10.4865 98.7251 10.7087 98.7251 10.9795H97.1826C97.1826 10.6029 97.3075 10.2516 97.5571 9.92578C97.8068 9.5957 98.1453 9.33757 98.5728 9.15137C99.0044 8.96517 99.4847 8.87207 100.014 8.87207C100.818 8.87207 101.459 9.0752 101.937 9.48145C102.415 9.88346 102.661 10.4505 102.673 11.1826V14.2803C102.673 14.8981 102.76 15.3911 102.934 15.7593V15.8672H101.359ZM99.6646 14.7563C99.9692 14.7563 100.255 14.6823 100.521 14.5342C100.792 14.3861 100.995 14.1872 101.131 13.9375V12.6426H100.299C99.728 12.6426 99.2985 12.742 99.0107 12.9409C98.723 13.1398 98.5791 13.4212 98.5791 13.7852C98.5791 14.0814 98.6764 14.3184 98.8711 14.4961C99.07 14.6696 99.3345 14.7563 99.6646 14.7563ZM112.849 13.7153H109.269L108.52 15.8672H106.85L110.341 6.625H111.782L115.28 15.8672H113.604L112.849 13.7153ZM109.719 12.4204H112.398L111.059 8.58643L109.719 12.4204ZM117.311 8.99902L117.355 9.79248C117.863 9.17887 118.53 8.87207 119.355 8.87207C120.785 8.87207 121.513 9.69092 121.539 11.3286V15.8672H119.996V11.4175C119.996 10.9816 119.901 10.66 119.71 10.4526C119.524 10.241 119.217 10.1353 118.79 10.1353C118.168 10.1353 117.705 10.4167 117.4 10.9795V15.8672H115.857V8.99902H117.311ZM127.22 15.8672C127.152 15.736 127.093 15.5223 127.042 15.2261C126.551 15.7381 125.95 15.9941 125.239 15.9941C124.549 15.9941 123.987 15.7974 123.551 15.4038C123.115 15.0103 122.897 14.5236 122.897 13.9438C122.897 13.2118 123.168 12.651 123.709 12.2617C124.255 11.8682 125.034 11.6714 126.045 11.6714H126.991V11.2207C126.991 10.8652 126.892 10.5817 126.693 10.3701C126.494 10.1543 126.191 10.0464 125.785 10.0464C125.434 10.0464 125.146 10.1353 124.922 10.313C124.698 10.4865 124.585 10.7087 124.585 10.9795H123.043C123.043 10.6029 123.168 10.2516 123.417 9.92578C123.667 9.5957 124.006 9.33757 124.433 9.15137C124.865 8.96517 125.345 8.87207 125.874 8.87207C126.678 8.87207 127.319 9.0752 127.797 9.48145C128.276 9.88346 128.521 10.4505 128.534 11.1826V14.2803C128.534 14.8981 128.62 15.3911 128.794 15.7593V15.8672H127.22ZM125.525 14.7563C125.83 14.7563 126.115 14.6823 126.382 14.5342C126.653 14.3861 126.856 14.1872 126.991 13.9375V12.6426H126.16C125.588 12.6426 125.159 12.742 124.871 12.9409C124.583 13.1398 124.439 13.4212 124.439 13.7852C124.439 14.0814 124.537 14.3184 124.731 14.4961C124.93 14.6696 125.195 14.7563 125.525 14.7563ZM131.581 8.99902L131.625 9.79248C132.133 9.17887 132.799 8.87207 133.625 8.87207C135.055 8.87207 135.783 9.69092 135.808 11.3286V15.8672H134.266V11.4175C134.266 10.9816 134.17 10.66 133.98 10.4526C133.794 10.241 133.487 10.1353 133.06 10.1353C132.438 10.1353 131.974 10.4167 131.669 10.9795V15.8672H130.127V8.99902H131.581ZM137.097 12.3823C137.097 11.3244 137.342 10.4759 137.833 9.83691C138.324 9.19368 138.982 8.87207 139.807 8.87207C140.535 8.87207 141.123 9.12598 141.572 9.63379V6.11719H143.114V15.8672H141.718L141.642 15.1562C141.18 15.7148 140.565 15.9941 139.794 15.9941C138.99 15.9941 138.339 15.6704 137.839 15.0229C137.344 14.3755 137.097 13.4953 137.097 12.3823ZM138.639 12.5156C138.639 13.2139 138.772 13.7598 139.039 14.1533C139.31 14.5426 139.693 14.7373 140.188 14.7373C140.819 14.7373 141.28 14.4559 141.572 13.8931V10.9604C141.288 10.4103 140.831 10.1353 140.201 10.1353C139.701 10.1353 139.316 10.3341 139.045 10.7319C138.775 11.1255 138.639 11.7201 138.639 12.5156ZM148.827 15.8672C148.759 15.736 148.7 15.5223 148.649 15.2261C148.159 15.7381 147.558 15.9941 146.847 15.9941C146.157 15.9941 145.594 15.7974 145.158 15.4038C144.722 15.0103 144.504 14.5236 144.504 13.9438C144.504 13.2118 144.775 12.651 145.317 12.2617C145.863 11.8682 146.641 11.6714 147.653 11.6714H148.599V11.2207C148.599 10.8652 148.499 10.5817 148.3 10.3701C148.101 10.1543 147.799 10.0464 147.393 10.0464C147.041 10.0464 146.754 10.1353 146.529 10.313C146.305 10.4865 146.193 10.7087 146.193 10.9795H144.65C144.65 10.6029 144.775 10.2516 145.025 9.92578C145.275 9.5957 145.613 9.33757 146.041 9.15137C146.472 8.96517 146.952 8.87207 147.481 8.87207C148.285 8.87207 148.927 9.0752 149.405 9.48145C149.883 9.88346 150.128 10.4505 150.141 11.1826V14.2803C150.141 14.8981 150.228 15.3911 150.401 15.7593V15.8672H148.827ZM147.132 14.7563C147.437 14.7563 147.723 14.6823 147.989 14.5342C148.26 14.3861 148.463 14.1872 148.599 13.9375V12.6426H147.767C147.196 12.6426 146.766 12.742 146.479 12.9409C146.191 13.1398 146.047 13.4212 146.047 13.7852C146.047 14.0814 146.144 14.3184 146.339 14.4961C146.538 14.6696 146.802 14.7563 147.132 14.7563ZM157.225 6.625L159.891 13.709L162.551 6.625H164.626V15.8672H163.027V12.8203L163.186 8.74512L160.456 15.8672H159.307L156.584 8.75146L156.743 12.8203V15.8672H155.143V6.625H157.225ZM170.485 15.8672C170.418 15.736 170.358 15.5223 170.308 15.2261C169.817 15.7381 169.216 15.9941 168.505 15.9941C167.815 15.9941 167.252 15.7974 166.816 15.4038C166.381 15.0103 166.163 14.5236 166.163 13.9438C166.163 13.2118 166.433 12.651 166.975 12.2617C167.521 11.8682 168.3 11.6714 169.311 11.6714H170.257V11.2207C170.257 10.8652 170.157 10.5817 169.958 10.3701C169.76 10.1543 169.457 10.0464 169.051 10.0464C168.7 10.0464 168.412 10.1353 168.188 10.313C167.963 10.4865 167.851 10.7087 167.851 10.9795H166.309C166.309 10.6029 166.433 10.2516 166.683 9.92578C166.933 9.5957 167.271 9.33757 167.699 9.15137C168.13 8.96517 168.611 8.87207 169.14 8.87207C169.944 8.87207 170.585 9.0752 171.063 9.48145C171.541 9.88346 171.787 10.4505 171.799 11.1826V14.2803C171.799 14.8981 171.886 15.3911 172.06 15.7593V15.8672H170.485ZM168.791 14.7563C169.095 14.7563 169.381 14.6823 169.647 14.5342C169.918 14.3861 170.121 14.1872 170.257 13.9375V12.6426H169.425C168.854 12.6426 168.424 12.742 168.137 12.9409C167.849 13.1398 167.705 13.4212 167.705 13.7852C167.705 14.0814 167.802 14.3184 167.997 14.4961C168.196 14.6696 168.46 14.7563 168.791 14.7563ZM176.236 14.7627C176.621 14.7627 176.941 14.6506 177.195 14.4263C177.449 14.202 177.584 13.9248 177.601 13.5947H179.055C179.038 14.0221 178.904 14.422 178.655 14.7944C178.405 15.1626 178.067 15.4546 177.639 15.6704C177.212 15.8862 176.75 15.9941 176.255 15.9941C175.295 15.9941 174.533 15.6831 173.97 15.061C173.407 14.439 173.126 13.5799 173.126 12.4839V12.3252C173.126 11.2799 173.405 10.4442 173.964 9.81787C174.522 9.18734 175.284 8.87207 176.249 8.87207C177.066 8.87207 177.73 9.11117 178.242 9.58936C178.758 10.0633 179.029 10.6875 179.055 11.4619H177.601C177.584 11.0684 177.449 10.7446 177.195 10.4907C176.945 10.2368 176.626 10.1099 176.236 10.1099C175.737 10.1099 175.352 10.2918 175.081 10.6558C174.81 11.0155 174.673 11.5635 174.668 12.2998V12.5474C174.668 13.2922 174.802 13.8486 175.068 14.2168C175.339 14.5807 175.729 14.7627 176.236 14.7627ZM183.244 15.9941C182.267 15.9941 181.473 15.6873 180.864 15.0737C180.259 14.4559 179.956 13.6349 179.956 12.6108V12.4204C179.956 11.7349 180.087 11.1234 180.35 10.5859C180.616 10.0443 180.989 9.62321 181.467 9.32275C181.945 9.0223 182.478 8.87207 183.066 8.87207C184.002 8.87207 184.723 9.17041 185.231 9.76709C185.743 10.3638 185.999 11.208 185.999 12.2998V12.9219H181.511C181.558 13.4889 181.746 13.9375 182.076 14.2676C182.41 14.5977 182.829 14.7627 183.333 14.7627C184.04 14.7627 184.615 14.4771 185.06 13.9058L185.891 14.6992C185.616 15.1097 185.248 15.4292 184.787 15.6577C184.33 15.882 183.815 15.9941 183.244 15.9941ZM183.06 10.1099C182.637 10.1099 182.294 10.258 182.032 10.5542C181.774 10.8504 181.609 11.263 181.537 11.792H184.476V11.6777C184.442 11.1615 184.304 10.7721 184.063 10.5098C183.822 10.2432 183.487 10.1099 183.06 10.1099ZM185.142 7.87549V7.94531H183.904L182.952 6.95508L182.006 7.94531H180.781V7.86279L182.501 6.11084H183.409L185.142 7.87549ZM186.913 12.3823C186.913 11.3244 187.159 10.4759 187.649 9.83691C188.14 9.19368 188.798 8.87207 189.624 8.87207C190.351 8.87207 190.94 9.12598 191.388 9.63379V6.11719H192.931V15.8672H191.534L191.458 15.1562C190.997 15.7148 190.381 15.9941 189.611 15.9941C188.807 15.9941 188.155 15.6704 187.656 15.0229C187.161 14.3755 186.913 13.4953 186.913 12.3823ZM188.456 12.5156C188.456 13.2139 188.589 13.7598 188.855 14.1533C189.126 14.5426 189.509 14.7373 190.004 14.7373C190.635 14.7373 191.096 14.4559 191.388 13.8931V10.9604C191.105 10.4103 190.648 10.1353 190.017 10.1353C189.518 10.1353 189.133 10.3341 188.862 10.7319C188.591 11.1255 188.456 11.7201 188.456 12.5156ZM194.251 12.3696C194.251 11.6968 194.384 11.0916 194.651 10.5542C194.917 10.0125 195.292 9.59782 195.774 9.31006C196.257 9.01807 196.811 8.87207 197.438 8.87207C198.364 8.87207 199.115 9.17041 199.691 9.76709C200.271 10.3638 200.584 11.1551 200.63 12.1411L200.637 12.5029C200.637 13.18 200.506 13.7852 200.243 14.3184C199.985 14.8516 199.613 15.2642 199.126 15.5562C198.644 15.8481 198.085 15.9941 197.45 15.9941C196.481 15.9941 195.705 15.6725 195.121 15.0293C194.541 14.3818 194.251 13.5207 194.251 12.4458V12.3696ZM195.793 12.5029C195.793 13.2096 195.939 13.764 196.231 14.166C196.523 14.5638 196.93 14.7627 197.45 14.7627C197.971 14.7627 198.375 14.5596 198.663 14.1533C198.955 13.7471 199.101 13.1525 199.101 12.3696C199.101 11.6756 198.95 11.1255 198.65 10.7192C198.354 10.313 197.95 10.1099 197.438 10.1099C196.934 10.1099 196.534 10.3109 196.238 10.7129C195.942 11.1107 195.793 11.7074 195.793 12.5029Z" fill="#555555"/>
<defs>
<filter id="filter0_d" x="0.370605" y="0.867188" width="58" height="58" filterUnits="userSpaceOnUse" color-interpolation-filters="sRGB">
<feFlood flood-opacity="0" result="BackgroundImageFix"/>
<feColorMatrix in="SourceAlpha" type="matrix" values="0 0 0 0 0 0 0 0 0 0 0 0 0 0 0 0 0 0 127 0" result="hardAlpha"/>
<feOffset dy="2"/>
<feGaussianBlur stdDeviation="2"/>
<feColorMatrix type="matrix" values="0 0 0 0 0 0 0 0 0 0 0 0 0 0 0 0 0 0 0.25 0"/>
<feBlend mode="normal" in2="BackgroundImageFix" result="effect1_dropShadow"/>
<feBlend mode="normal" in="SourceGraphic" in2="effect1_dropShadow" result="shape"/>
</filter>
</defs>
</svg>
